<svg id="Capa_1" enable-background="new 0 0 512 512" height="512" viewBox="0 0 512 512" width="512" xmlns="http://www.w3.org/2000/svg"><g><g><path d="m162.191 504.5v-185.946c0-18.248-6.321-35.846-17.526-50.249-21.301-27.379-33.992-61.795-33.992-99.18 0-89.288 72.408-161.666 161.707-161.626 89.49.04 161.545 73.691 161.545 163.172v21.617c0 13.95 3.616 27.668 10.486 39.811l41.588 73.469c3.808 6.738-1.051 15.082-8.788 15.082h-43.285v57.579c0 22.316-18.091 40.407-40.406 40.407h-72.732v85.864z" fill="#f1d0a5"/></g><g><path d="m238.729 11.002c-73.15 15.456-128.057 80.374-128.057 158.124 0 37.384 12.691 71.801 33.992 99.18 11.206 14.403 17.526 32 17.526 50.249v55.084c7.892 1.026 15.936 1.561 24.104 1.561 102.489 0 185.87-83.381 185.87-185.87 0-84.287-56.398-155.638-133.435-178.328z" fill="#f1b986"/></g><g><g><circle cx="186.294" cy="189.329" fill="#5766cb" r="161.626"/></g><g><path d="m291.123 66.318c24.074 28.223 38.615 64.825 38.615 104.828 0 89.264-72.362 161.626-161.626 161.626-40.003 0-76.606-14.541-104.828-38.615 29.645 34.754 73.751 56.798 123.011 56.798 89.264 0 161.626-72.362 161.626-161.626-.001-49.26-22.045-93.366-56.798-123.011z" fill="#3342aa"/></g><g><circle cx="186.294" cy="189.329" fill="#d8e2f1" r="127.28"/></g><g><g><path d="m184.274 176.197h101.016v48.488h-101.016z" fill="#80e29d" transform="matrix(0 -1 1 0 34.341 435.223)"/></g><g><path d="m115.583 155.994h141.423v48.488h-141.423z" fill="#dd5790" transform="matrix(0 -1 1 0 6.057 366.532)"/></g><g><path d="m107.502 196.4h60.61v48.488h-60.61z" fill="#ffe07d" transform="matrix(0 -1 1 0 -82.838 358.451)"/></g></g></g><g><path d="m492.522 301.876-41.587-73.466c-6.222-11.01-9.51-23.5-9.51-36.12v-21.62c0-94.066-75.834-170.628-169.047-170.67-.021 0-.037 0-.059 0-28.103 0-55.844 7.028-80.382 20.307-1.875-.062-3.754-.104-5.643-.104-29.17 0-57.931 7.55-83.172 21.832-3.605 2.04-4.874 6.616-2.834 10.221 2.039 3.604 6.614 4.874 10.221 2.834 22.993-13.01 49.199-19.887 75.785-19.887 84.985 0 154.126 69.141 154.126 154.126s-69.14 154.126-154.126 154.126-154.126-69.141-154.126-154.126c0-43.662 18.637-85.455 51.132-114.662 3.08-2.77 3.333-7.511.564-10.592-2.769-3.078-7.51-3.335-10.592-.564-35.655 32.048-56.104 77.907-56.104 125.818 0 82.459 59.322 151.312 137.527 166.153v67.33c0 4.143 3.357 7.5 7.5 7.5s7.5-3.357 7.5-7.5v-65.172c5.462.535 10.998.815 16.599.815 93.257 0 169.126-75.869 169.126-169.126 0-81.369-57.762-149.494-134.434-165.542 16.4-5.776 33.784-8.787 51.334-8.787h.053c84.944.038 154.053 69.871 154.053 155.67v21.62c0 15.201 3.96 30.243 11.454 43.504l41.587 73.467c.644 1.139.267 2.118-.015 2.602-.281.481-.946 1.288-2.246 1.288h-43.28c-4.143 0-7.5 3.357-7.5 7.5v57.58c0 18.146-14.764 32.909-32.91 32.909h-72.729c-4.143 0-7.5 3.357-7.5 7.5v85.86c0 4.143 3.357 7.5 7.5 7.5s7.5-3.357 7.5-7.5v-78.36h65.229c26.418 0 47.91-21.492 47.91-47.909v-50.08h35.78c6.33 0 12.013-3.264 15.202-8.729 3.19-5.47 3.234-12.027.114-17.546z"/><path d="m162.196 450.357c-4.143 0-7.5 3.357-7.5 7.5v46.643c0 4.143 3.357 7.5 7.5 7.5s7.5-3.357 7.5-7.5v-46.643c0-4.142-3.358-7.5-7.5-7.5z"/><path d="m282.648 272.742c3.285 2.527 7.991 1.911 10.518-1.371 18.259-23.731 27.909-52.101 27.909-82.042 0-74.318-60.462-134.78-134.78-134.78s-134.78 60.462-134.78 134.78 60.462 134.78 134.78 134.78c29.235 0 57.067-9.242 80.485-26.729 3.319-2.479 4.001-7.178 1.522-10.497-2.478-3.319-7.178-4-10.497-1.522-20.807 15.536-45.534 23.748-71.511 23.748-66.047 0-119.78-53.733-119.78-119.78s53.733-119.78 119.78-119.78 119.78 53.733 119.78 119.78c0 26.603-8.575 51.81-24.798 72.896-2.525 3.283-1.911 7.991 1.372 10.517z"/><path d="m210.539 102.026h-48.489c-4.143 0-7.5 3.357-7.5 7.5v73.313h-40.987c-4.143 0-7.5 3.357-7.5 7.5v60.609c0 4.143 3.357 7.5 7.5 7.5h145.463c4.143 0 7.5-3.357 7.5-7.5v-101.015c0-4.143-3.357-7.5-7.5-7.5h-40.987v-32.906c0-4.143-3.358-7.501-7.5-7.501zm-89.476 95.814h33.487v45.609h-33.487zm48.487-80.814h33.488v126.423h-33.488zm81.976 40.407v86.017h-33.487v-86.017z"/></g></g></svg>